<svg width="112" height="75" viewBox="0 0 112 75" fill="none" xmlns="http://www.w3.org/2000/svg">
<rect x="0.5" y="0.5" width="111" height="74" rx="7.5" fill="#393939"/>
<rect x="0.5" y="0.5" width="111" height="74" rx="7.5" stroke="white"/>
<path d="M56 11C53.4288 11 50.9154 11.7624 48.7776 13.1909C46.6398 14.6194 44.9735 16.6497 43.9896 19.0251C43.0056 21.4006 42.7482 24.0144 43.2498 26.5362C43.7514 29.0579 44.9895 31.3743 46.8076 33.1924C48.6257 35.0105 50.9421 36.2486 53.4638 36.7502C55.9856 37.2518 58.5995 36.9944 60.9749 36.0104C63.3503 35.0265 65.3807 33.3603 66.8091 31.2224C68.2376 29.0846 69 26.5712 69 24C68.9964 20.5533 67.6256 17.2488 65.1884 14.8116C62.7512 12.3744 59.4467 11.0036 56 11ZM56 35C53.8244 35 51.6977 34.3549 49.8887 33.1462C48.0798 31.9375 46.6699 30.2195 45.8373 28.2095C45.0048 26.1995 44.7869 23.9878 45.2114 21.854C45.6358 19.7202 46.6835 17.7602 48.2218 16.2218C49.7602 14.6834 51.7202 13.6358 53.854 13.2114C55.9878 12.7869 58.1995 13.0048 60.2095 13.8373C62.2195 14.6699 63.9375 16.0798 65.1462 17.8887C66.3549 19.6977 67 21.8244 67 24C66.9967 26.9164 65.8367 29.7123 63.7745 31.7745C61.7123 33.8367 58.9164 34.9967 56 35ZM58.7075 19.7075L54.4138 24L58.7075 28.2925C58.8004 28.3854 58.8741 28.4957 58.9244 28.6171C58.9747 28.7385 59.0006 28.8686 59.0006 29C59.0006 29.1314 58.9747 29.2615 58.9244 29.3829C58.8741 29.5043 58.8004 29.6146 58.7075 29.7075C58.6146 29.8004 58.5043 29.8741 58.3829 29.9244C58.2615 29.9747 58.1314 30.0006 58 30.0006C57.8686 30.0006 57.7385 29.9747 57.6171 29.9244C57.4957 29.8741 57.3854 29.8004 57.2925 29.7075L52.2925 24.7075C52.1995 24.6146 52.1258 24.5043 52.0754 24.3829C52.0251 24.2615 51.9992 24.1314 51.9992 24C51.9992 23.8686 52.0251 23.7385 52.0754 23.6171C52.1258 23.4957 52.1995 23.3854 52.2925 23.2925L57.2925 18.2925C57.3854 18.1996 57.4957 18.1259 57.6171 18.0756C57.7385 18.0253 57.8686 17.9994 58 17.9994C58.1314 17.9994 58.2615 18.0253 58.3829 18.0756C58.5043 18.1259 58.6146 18.1996 58.7075 18.2925C58.8004 18.3854 58.8741 18.4957 58.9244 18.6171C58.9747 18.7385 59.0006 18.8686 59.0006 19C59.0006 19.1314 58.9747 19.2615 58.9244 19.3829C58.8741 19.5043 58.8004 19.6146 58.7075 19.7075Z" fill="white"/>
<path d="M38.7798 49.7441V65.5293H37.1098V49.7441H38.7798ZM30.3598 50.9219C32.6977 50.9219 34.4204 53.0664 34.4204 56.4414C34.4204 59.834 32.6977 61.9785 30.3598 61.9785C27.9868 61.9785 26.2817 59.834 26.2817 56.4414C26.2817 53.0664 27.9868 50.9219 30.3598 50.9219ZM30.3598 52.416C28.9009 52.416 27.8989 53.9629 27.8989 56.4414C27.8989 58.9375 28.9009 60.4844 30.3598 60.4844C31.8013 60.4844 32.8032 58.9375 32.8032 56.4414C32.8032 53.9629 31.8013 52.416 30.3598 52.416ZM54.2443 49.7617V61.293H52.5744V55.3691H49.5685V54.0156H52.5744V49.7617H54.2443ZM54.6662 63.8066V65.1602H44.0138V60.2559H45.6838V63.8066H54.6662ZM46.756 52.9434C46.756 54.9121 48.1798 56.8809 50.5529 57.6719L49.6916 59.0078C47.925 58.3838 46.6154 57.1182 45.9298 55.5625C45.2443 57.2939 43.8644 58.6914 41.9923 59.3594L41.131 58.0059C43.5568 57.1797 45.0509 55.1055 45.0509 52.9434V52.3281H41.6408V50.957H50.131V52.3281H46.756V52.9434ZM63.662 50.6934C66.9666 50.6934 69.4803 52.4336 69.4803 55.0879C69.4803 57.7422 66.9666 59.5 63.662 59.4824C60.3573 59.5 57.8612 57.7422 57.8612 55.0879C57.8612 52.4336 60.3573 50.6934 63.662 50.6934ZM63.662 52.0469C61.2537 52.0293 59.4432 53.2598 59.4608 55.0879C59.4432 56.9336 61.2537 58.1113 63.662 58.1113C66.0702 58.1113 67.8631 56.9336 67.8631 55.0879C67.8631 53.2598 66.0702 52.0293 63.662 52.0469ZM70.9041 62.0664V63.4551H56.4901V62.0664H70.9041ZM86.2808 62.207V63.6133H71.8667V62.207H78.2124V59.4473H73.6245V54.4375H82.8706V52.2227H73.5894V50.8516H84.523V55.7734H75.2769V58.0762H84.8921V59.4473H79.8648V62.207H86.2808Z" fill="white"/>
</svg>
