<svg width="122" height="85" viewBox="0 0 122 85" fill="none" xmlns="http://www.w3.org/2000/svg">
<g filter="url(#filter0_d_916_703)">
<rect x="5.25" y="1" width="112" height="75" rx="8" fill="black" shape-rendering="crispEdges"/>
<rect x="5.25" y="1" width="112" height="75" rx="8" stroke="#EFCF02" shape-rendering="crispEdges"/>
<path d="M64.0276 23.0276C64.0276 23.2928 63.9223 23.5472 63.7347 23.7347C63.5472 23.9223 63.2928 24.0276 63.0276 24.0276H60.0276V27.0276C60.0276 27.2928 59.9223 27.5472 59.7347 27.7347C59.5472 27.9223 59.2928 28.0276 59.0276 28.0276C58.7624 28.0276 58.5081 27.9223 58.3205 27.7347C58.133 27.5472 58.0276 27.2928 58.0276 27.0276V24.0276H55.0276C54.7624 24.0276 54.5081 23.9223 54.3205 23.7347C54.133 23.5472 54.0276 23.2928 54.0276 23.0276C54.0276 22.7624 54.133 22.5081 54.3205 22.3205C54.5081 22.133 54.7624 22.0276 55.0276 22.0276H58.0276V19.0276C58.0276 18.7624 58.133 18.5081 58.3205 18.3205C58.5081 18.133 58.7624 18.0276 59.0276 18.0276C59.2928 18.0276 59.5472 18.133 59.7347 18.3205C59.9223 18.5081 60.0276 18.7624 60.0276 19.0276V22.0276H63.0276C63.2928 22.0276 63.5472 22.133 63.7347 22.3205C63.9223 22.5081 64.0276 22.7624 64.0276 23.0276ZM73.7351 37.7351C73.6423 37.8281 73.532 37.9019 73.4106 37.9522C73.2892 38.0025 73.159 38.0284 73.0276 38.0284C72.8962 38.0284 72.7661 38.0025 72.6447 37.9522C72.5233 37.9019 72.413 37.8281 72.3201 37.7351L66.0626 31.4764C63.8848 33.2904 61.0914 34.195 58.2635 34.0019C55.4357 33.8089 52.7912 32.533 50.8801 30.4398C48.969 28.3466 47.9384 25.5972 48.0028 22.7635C48.0672 19.9298 49.2216 17.2301 51.2259 15.2259C53.2301 13.2216 55.9298 12.0672 58.7635 12.0028C61.5972 11.9384 64.3466 12.969 66.4398 14.8801C68.533 16.7912 69.8089 19.4357 70.0019 22.2635C70.195 25.0914 69.2904 27.8848 67.4764 30.0626L73.7351 36.3201C73.8281 36.413 73.9019 36.5233 73.9522 36.6447C74.0025 36.7661 74.0284 36.8962 74.0284 37.0276C74.0284 37.159 74.0025 37.2892 73.9522 37.4106C73.9019 37.532 73.8281 37.6423 73.7351 37.7351ZM59.0276 32.0276C60.8077 32.0276 62.5477 31.4998 64.0278 30.5109C65.5078 29.5219 66.6614 28.1163 67.3425 26.4718C68.0237 24.8272 68.202 23.0176 67.8547 21.2718C67.5074 19.526 66.6503 17.9223 65.3916 16.6637C64.1329 15.405 62.5293 14.5478 60.7834 14.2006C59.0376 13.8533 57.228 14.0315 55.5835 14.7127C53.9389 15.3939 52.5333 16.5475 51.5444 18.0275C50.5555 19.5075 50.0276 21.2476 50.0276 23.0276C50.0303 25.4138 50.9793 27.7014 52.6666 29.3887C54.3538 31.0759 56.6415 32.025 59.0276 32.0276Z" fill="#EFCF02"/>
<path d="M51.2611 51.5352V52.9238C51.2611 54.4443 51.2611 56.1055 50.8216 58.4258H53.0716V59.7793H38.6751V58.4258H49.1341C49.3275 57.5117 49.4417 56.6943 49.5032 55.9297L40.2923 56.3516L40.0814 54.9629L49.5911 54.6992C49.6087 54.0664 49.6087 53.4775 49.6087 52.9238V52.9062H40.4857V51.5352H51.2611ZM51.5775 64.8066V66.1602H40.4505V61.2207H42.1204V64.8066H51.5775ZM66.3916 50.7441V57.3359H68.7646V58.7422H66.3916V66.4941H64.7217V50.7441H66.3916ZM53.8584 62.2051C55.0977 62.2051 56.5391 62.2051 58.042 62.1523V60.5527C56.2666 60.3066 55.1064 59.2344 55.124 57.7051C55.1064 55.9297 56.6357 54.752 58.8857 54.752C61.1182 54.752 62.665 55.9297 62.6826 57.7051C62.665 59.2344 61.4873 60.3154 59.7119 60.5703V62.082C61.1094 62.0293 62.5156 61.915 63.8252 61.7305L63.9307 62.9609C60.5205 63.5762 56.8291 63.5938 54.1221 63.5938L53.8584 62.2051ZM63.5967 52.6074V53.9434H54.1572V52.6074H58.042V50.7793H59.7119V52.6074H63.5967ZM58.8857 56.0527C57.5674 56.0527 56.6885 56.7031 56.6885 57.7051C56.6885 58.707 57.5674 59.3223 58.8857 59.3223C60.2041 59.3223 61.083 58.707 61.083 57.7051C61.083 56.7031 60.2041 56.0527 58.8857 56.0527ZM77.4616 52.0801V53.416H80.8893V50.7617H82.5593V62.2402H80.8893V58.1621H77.4616V59.5332H70.1491V52.0801H77.4616ZM71.8014 53.4336V58.2148H75.8268V53.4336H71.8014ZM82.9108 64.8066V66.1602H72.2761V61.1855H73.9636V64.8066H82.9108ZM77.4616 56.791H80.8893V54.7871H77.4616V56.791Z" fill="#EFCF02"/>
</g>
<defs>
<filter id="filter0_d_916_703" x="0.75" y="0.5" width="121" height="84" filterUnits="userSpaceOnUse" color-interpolation-filters="sRGB">
<feFlood flood-opacity="0" result="BackgroundImageFix"/>
<feColorMatrix in="SourceAlpha" type="matrix" values="0 0 0 0 0 0 0 0 0 0 0 0 0 0 0 0 0 0 127 0" result="hardAlpha"/>
<feOffset dy="4"/>
<feGaussianBlur stdDeviation="2"/>
<feComposite in2="hardAlpha" operator="out"/>
<feColorMatrix type="matrix" values="0 0 0 0 0 0 0 0 0 0 0 0 0 0 0 0 0 0 0.25 0"/>
<feBlend mode="normal" in2="BackgroundImageFix" result="effect1_dropShadow_916_703"/>
<feBlend mode="normal" in="SourceGraphic" in2="effect1_dropShadow_916_703" result="shape"/>
</filter>
</defs>
</svg>
