<svg width="285" height="60" viewBox="0 0 285 60" fill="none" xmlns="http://www.w3.org/2000/svg">
<rect x="2" y="2" width="281" height="56" rx="28" fill="#232323"/>
<rect x="2" y="2" width="281" height="56" rx="28" stroke="#EFCF02" stroke-width="4"/>
<path d="M67.4882 41.0194L62.0688 35.5978C66.1238 30.1789 65.0182 22.4987 59.5993 18.4437C54.1804 14.3887 46.5002 15.4944 42.4452 20.9133C38.3902 26.3322 39.4958 34.0124 44.9147 38.0674C49.2677 41.3247 55.2463 41.3247 59.5993 38.0674L65.0209 43.489C65.7022 44.1703 66.8068 44.1703 67.4881 43.489C68.1694 42.8077 68.1694 41.703 67.4881 41.0218L67.4882 41.0194ZM52.3022 37.0209C47.4861 37.0209 43.582 33.1168 43.582 28.3007C43.582 23.4847 47.4861 19.5805 52.3022 19.5805C57.1182 19.5805 61.0224 23.4847 61.0224 28.3007C61.0173 33.1146 57.1161 37.0158 52.3022 37.0209Z" fill="#EFCF02"/>
<path d="M86.9783 41.612C85.8583 42.172 84.9063 41.696 84.3183 41.052C83.5623 40.38 83.7863 38.896 84.4303 37.972C86.2223 35.424 86.5583 33.604 86.5583 30.524V22.32H81.5183C79.4743 22.32 78.9703 21.508 78.9703 20.36C78.9703 19.38 79.4743 18.456 81.5183 18.456H89.0503C91.0663 18.456 91.2063 19.268 91.2063 20.584V31.56C91.2063 32.708 90.9543 34.696 90.3383 36.796C89.6663 38.896 88.5743 40.8 86.9783 41.612ZM99.9983 42.144C98.7383 42.144 97.7303 41.556 97.7303 39.68V20.556C97.7303 18.68 98.7943 18.12 99.9983 18.12C101.174 18.12 102.266 18.624 102.266 20.556V39.68C102.266 41.612 101.202 42.144 99.9983 42.144ZM126.296 42.452H110C107.956 42.452 107.732 41.612 107.732 40.492V37.132C107.732 35.284 108.74 34.78 110 34.78C111.176 34.78 112.268 35.2 112.268 37.132V38.7H126.296C128.452 38.7 128.844 39.652 128.844 40.548C128.844 41.668 128.424 42.452 126.296 42.452ZM119.24 33.66H108.208C106.052 33.66 105.66 32.708 105.66 31.812C105.66 30.692 106.08 29.908 108.208 29.908H108.908V26.408C108.908 24.532 109.972 23.972 111.176 23.972C112.352 23.972 113.444 24.476 113.444 26.408V29.908H119.24C121.368 29.908 121.788 30.692 121.788 31.812C121.788 32.708 121.396 33.66 119.24 33.66ZM117.364 28.424C115.88 28.228 115.376 27.528 115.46 26.38C115.488 26.016 115.516 25.624 115.572 25.148C115.6 24.672 115.628 24.252 115.628 23.888V22.32H108.628C106.584 22.32 106.08 21.508 106.08 20.36C106.08 19.38 106.584 18.456 108.628 18.456H118.12C120.136 18.456 120.276 19.268 120.276 20.584V22.516C120.276 23.496 120.108 25.484 119.912 26.716C119.688 27.92 118.96 28.62 117.364 28.424ZM125.4 35.788C124.14 35.788 123.132 35.2 123.132 33.324V20.556C123.132 18.68 124.196 18.12 125.4 18.12C126.576 18.12 127.668 18.624 127.668 20.556V25.204H129.096C131.224 25.204 131.644 26.268 131.644 27.164C131.644 28.284 131.224 29.18 129.096 29.18H127.668V33.324C127.668 35.256 126.604 35.788 125.4 35.788ZM148.953 32.82H139.573C135.709 32.82 133.637 30.132 133.637 27.08V24.476C133.637 21.48 135.989 18.4 139.685 18.4H148.813C152.425 18.4 154.861 21.396 154.861 24.476V27.08C154.861 30.104 152.873 32.82 148.953 32.82ZM153.993 41.808H134.533C132.489 41.808 131.985 40.884 131.985 39.904C131.985 38.756 132.489 37.944 134.533 37.944H153.993C156.037 37.944 156.541 38.756 156.541 39.904C156.541 40.884 156.037 41.808 153.993 41.808ZM140.525 28.928H147.973C149.569 28.844 150.325 27.752 150.325 26.38V24.84C150.325 23.412 149.597 22.292 147.889 22.292H140.609C138.901 22.292 138.173 23.412 138.173 24.84V26.38C138.173 27.752 138.929 28.844 140.525 28.928ZM180.319 41.808H160.859C158.815 41.808 158.311 40.884 158.311 39.904C158.311 38.756 158.815 37.944 160.859 37.944H168.335V33.884H162.511C160.439 33.884 160.243 32.96 160.243 31.784V26.604C160.243 24.784 161.279 24.196 162.511 24.196H176.371V22.264H162.371C160.607 22.264 160.243 21.256 160.243 20.36C160.243 19.352 160.579 18.428 162.371 18.428H178.639C180.795 18.428 180.907 19.52 180.907 20.612V25.652C180.907 27.024 180.179 28.004 178.723 28.004H164.779V30.048H179.227C181.131 30.048 181.355 31.196 181.355 31.952C181.355 32.96 181.047 33.884 179.227 33.884H172.871V37.944H180.319C182.363 37.944 182.867 38.756 182.867 39.904C182.867 40.884 182.363 41.808 180.319 41.808ZM196.447 42.564C195.327 42.648 194.179 42.536 193.955 41.08C193.759 39.652 194.515 39.064 195.971 38.868C198.379 38.588 200.759 38.224 201.739 36.712H197.315C195.159 36.712 194.767 35.844 194.767 34.948C194.767 33.8 195.271 33.156 197.315 33.156H211.763C213.807 33.156 214.311 33.8 214.311 34.948C214.311 35.844 213.919 36.712 211.763 36.712H207.563C208.627 38.084 210.951 38.588 213.303 38.868C214.759 39.064 215.515 39.652 215.319 41.08C215.095 42.536 213.947 42.648 212.827 42.564C210.531 42.48 206.891 41.5 204.847 39.736C202.467 41.556 199.583 42.312 196.447 42.564ZM194.655 32.036C194.011 32.008 193.311 31.812 192.891 31.056C192.219 29.824 192.667 28.788 193.983 28.144C195.355 27.472 196.279 27.08 197.007 26.044C197.147 25.792 197.287 25.512 197.399 25.148H195.271C193.451 25.148 193.003 24.504 193.003 23.58C193.003 22.488 193.451 21.956 195.271 21.956H204.147C205.967 21.956 206.415 22.488 206.415 23.58C206.415 24.504 205.967 25.148 204.147 25.148H202.495C202.635 25.568 202.803 25.876 202.999 26.128C203.811 27.108 204.623 27.5 205.659 27.976C206.975 28.62 207.367 29.432 206.835 30.692C206.583 31.364 206.023 31.728 205.351 31.84C204.931 31.868 204.455 31.84 204.035 31.616C202.943 31.056 201.487 29.936 200.171 28.592C199.163 29.796 197.819 30.832 196.363 31.588C195.831 31.84 195.243 32.036 194.655 32.036ZM202.831 20.808H196.839C195.047 20.808 194.711 20.024 194.711 19.352C194.711 18.568 195.075 17.868 196.839 17.868H202.831C204.595 17.868 204.959 18.568 204.959 19.352C204.959 20.024 204.623 20.808 202.831 20.808ZM211.875 32.12C210.615 32.12 209.607 31.532 209.607 29.656V20.556C209.607 18.68 210.671 18.12 211.875 18.12C213.051 18.12 214.143 18.624 214.143 20.556V23.048H216.187C218.315 23.048 218.735 24.112 218.735 25.008C218.735 26.128 218.315 27.024 216.187 27.024H214.143V29.656C214.143 31.588 213.079 32.12 211.875 32.12ZM226.72 41.612C225.6 42.172 224.648 41.696 224.06 41.052C223.304 40.38 223.528 38.896 224.172 37.972C225.964 35.424 226.3 33.604 226.3 30.524V22.32H221.26C219.216 22.32 218.712 21.508 218.712 20.36C218.712 19.38 219.216 18.456 221.26 18.456H228.792C230.808 18.456 230.948 19.268 230.948 20.584V31.56C230.948 32.708 230.696 34.696 230.08 36.796C229.408 38.896 228.316 40.8 226.72 41.612ZM239.74 42.144C238.48 42.144 237.472 41.556 237.472 39.68V20.556C237.472 18.68 238.536 18.12 239.74 18.12C240.916 18.12 242.008 18.624 242.008 20.556V39.68C242.008 41.612 240.944 42.144 239.74 42.144Z" fill="#EFCF02"/>
</svg>
