<svg width="113" height="75" viewBox="0 0 113 75" fill="none" xmlns="http://www.w3.org/2000/svg">
<rect x="1.25" y="0.5" width="111" height="74" rx="7.5" fill="#393939"/>
<rect x="1.25" y="0.5" width="111" height="74" rx="7.5" stroke="white"/>
<path d="M68.3538 20.9711L58.3538 11.5361C58.3489 11.5318 58.3443 11.5272 58.34 11.5223C57.9718 11.1875 57.492 11.002 56.9944 11.002C56.4967 11.002 56.0169 11.1875 55.6488 11.5223L55.635 11.5361L45.6462 20.9711C45.4425 21.1584 45.2799 21.3861 45.1686 21.6395C45.0574 21.893 45 22.1668 45 22.4436V33.9998C45 34.5303 45.2107 35.039 45.5858 35.414C45.9609 35.7891 46.4696 35.9998 47 35.9998H53C53.5304 35.9998 54.0391 35.7891 54.4142 35.414C54.7893 35.039 55 34.5303 55 33.9998V27.9998H59V33.9998C59 34.5303 59.2107 35.039 59.5858 35.414C59.9609 35.7891 60.4696 35.9998 61 35.9998H67C67.5304 35.9998 68.0391 35.7891 68.4142 35.414C68.7893 35.039 69 34.5303 69 33.9998V22.4436C69 22.1668 68.9426 21.893 68.8314 21.6395C68.7201 21.3861 68.5575 21.1584 68.3538 20.9711ZM67 33.9998H61V27.9998C61 27.4694 60.7893 26.9607 60.4142 26.5856C60.0391 26.2105 59.5304 25.9998 59 25.9998H55C54.4696 25.9998 53.9609 26.2105 53.5858 26.5856C53.2107 26.9607 53 27.4694 53 27.9998V33.9998H47V22.4436L47.0138 22.4311L57 12.9998L66.9875 22.4286L67.0012 22.4411L67 33.9998Z" fill="white"/>
<path d="M39.6352 49.7441V65.5293H37.9653V57.3379H34.7134V55.9844H37.9653V49.7441H39.6352ZM32.0766 54.8066C32.0766 57.3027 33.6763 59.8516 36.102 60.9238L35.1704 62.207C33.3686 61.4072 31.98 59.7637 31.2856 57.7773C30.5913 59.8779 29.2114 61.6357 27.4009 62.4707L26.4868 61.1875C28.8774 60.0977 30.4243 57.4082 30.4243 54.8066V53.7695H26.9263V52.4336H30.4419V50.0605H32.1118V52.4336H35.522V53.7695H32.0766V54.8066ZM49.0353 50.0781C52.4982 50.0781 54.6603 51.2031 54.6603 53.1016C54.6603 54.9648 52.4982 56.0723 49.0353 56.0723C45.59 56.0723 43.4103 54.9648 43.4103 53.1016C43.4103 51.2031 45.59 50.0781 49.0353 50.0781ZM49.0353 51.3965C46.6095 51.3965 45.1154 52.0117 45.133 53.1016C45.1154 54.1562 46.6095 54.7539 49.0353 54.7715C51.4435 54.7539 52.9377 54.1562 52.9377 53.1016C52.9377 52.0117 51.4435 51.3965 49.0353 51.3965ZM54.467 60.0449V65.3008H43.5861V60.0449H54.467ZM45.2384 61.3809V63.9473H52.8498V61.3809H45.2384ZM56.2248 57.2852V58.6387H41.8634V57.2852H56.2248ZM64.412 50.6934C67.7166 50.6934 70.2303 52.4336 70.2303 55.0879C70.2303 57.7422 67.7166 59.5 64.412 59.4824C61.1073 59.5 58.6112 57.7422 58.6112 55.0879C58.6112 52.4336 61.1073 50.6934 64.412 50.6934ZM64.412 52.0469C62.0037 52.0293 60.1932 53.2598 60.2108 55.0879C60.1932 56.9336 62.0037 58.1113 64.412 58.1113C66.8202 58.1113 68.6131 56.9336 68.6131 55.0879C68.6131 53.2598 66.8202 52.0293 64.412 52.0469ZM71.6541 62.0664V63.4551H57.2401V62.0664H71.6541ZM87.0308 62.207V63.6133H72.6167V62.207H78.9624V59.4473H74.3745V54.4375H83.6206V52.2227H74.3394V50.8516H85.273V55.7734H76.0269V58.0762H85.6421V59.4473H80.6148V62.207H87.0308Z" fill="white"/>
</svg>
