<svg width="113" height="75" viewBox="0 0 113 75" fill="none" xmlns="http://www.w3.org/2000/svg">
<rect x="1" y="0.5" width="111" height="74" rx="7.5" fill="#393939"/>
<rect x="1" y="0.5" width="111" height="74" rx="7.5" stroke="white"/>
<path d="M67 13H45C44.4696 13 43.9609 13.2107 43.5858 13.5858C43.2107 13.9609 43 14.4696 43 15V33C43 33.5304 43.2107 34.0391 43.5858 34.4142C43.9609 34.7893 44.4696 35 45 35H67C67.5304 35 68.0391 34.7893 68.4142 34.4142C68.7893 34.0391 69 33.5304 69 33V15C69 14.4696 68.7893 13.9609 68.4142 13.5858C68.0391 13.2107 67.5304 13 67 13ZM67 15V26.5H45V15H67Z" fill="white"/>
<path d="M59.939 21.2929C59.8988 21.1958 59.8398 21.1076 59.7654 21.0333C59.6911 20.959 59.6029 20.9 59.5058 20.8597C59.4087 20.8194 59.3046 20.7987 59.1995 20.7987C59.0944 20.7987 58.9903 20.8194 58.8932 20.8597C58.7961 20.9 58.7078 20.959 58.6336 21.0333L56.7998 22.8681V16.7999C56.7998 16.5877 56.7155 16.3843 56.5655 16.2343C56.4155 16.0843 56.2121 16 55.9999 16C55.7878 16 55.5843 16.0843 55.4343 16.2343C55.2843 16.3843 55.2 16.5877 55.2 16.7999V22.8681L53.3663 21.0333C53.2162 20.8832 53.0126 20.7989 52.8003 20.7989C52.5881 20.7989 52.3845 20.8832 52.2344 21.0333C52.0843 21.1834 52 21.387 52 21.5992C52 21.8115 52.0843 22.0151 52.2344 22.1652L55.434 25.3647C55.5083 25.4391 55.5965 25.4981 55.6936 25.5384C55.7907 25.5786 55.8948 25.5993 55.9999 25.5993C56.105 25.5993 56.2091 25.5786 56.3062 25.5384C56.4033 25.4981 56.4915 25.4391 56.5658 25.3647L59.7654 22.1652C59.8398 22.0909 59.8988 22.0027 59.939 21.9056C59.9793 21.8085 60 21.7044 60 21.5992C60 21.4941 59.9793 21.39 59.939 21.2929Z" fill="white"/>
<path d="M38.6118 49.7266V53.4531H40.897V54.8594H38.6118V58.5684H36.9419V49.7266H38.6118ZM28.6274 50.5703V56.0898C30.7632 56.0723 32.9956 55.9053 35.4126 55.4043L35.6235 56.7754C32.9692 57.3203 30.561 57.4961 28.2407 57.4961H26.9575V50.5703H28.6274ZM38.8579 59.3242V60.6777H34.5337C34.6743 62.2334 36.7485 63.7188 39.5083 64.1406L38.8403 65.4238C36.4761 65.0459 34.5337 63.9033 33.6372 62.3828C32.7495 63.9121 30.7983 65.002 28.4341 65.3887L27.7661 64.123C30.5434 63.7188 32.5913 62.2598 32.7583 60.6777H28.3989V59.3242H38.8579ZM55.9748 57.9707V59.3066H41.6134V57.9707H55.9748ZM54.3576 63.8066V65.1602H43.424V60.5898H45.1115V63.8066H54.3576ZM48.7853 50.2715C52.1955 50.2539 54.4103 51.4492 54.4103 53.418C54.4103 55.4043 52.1955 56.5996 48.7853 56.6172C45.3576 56.5996 43.1603 55.4043 43.1603 53.418C43.1603 51.4492 45.3576 50.2539 48.7853 50.2715ZM48.7853 51.6074C46.3771 51.6074 44.8654 52.293 44.883 53.418C44.8654 54.5781 46.3771 55.2461 48.7853 55.2461C51.1935 55.2461 52.6877 54.5781 52.6877 53.418C52.6877 52.293 51.1935 51.6074 48.7853 51.6074ZM69.3299 49.7441V56.3359H71.703V57.7422H69.3299V65.4941H67.66V49.7441H69.3299ZM56.7967 61.2051C58.036 61.2051 59.4774 61.2051 60.9803 61.1523V59.5527C59.2049 59.3066 58.0448 58.2344 58.0623 56.7051C58.0448 54.9297 59.5741 53.752 61.8241 53.752C64.0565 53.752 65.6034 54.9297 65.6209 56.7051C65.6034 58.2344 64.4256 59.3154 62.6502 59.5703V61.082C64.0477 61.0293 65.4539 60.915 66.7635 60.7305L66.869 61.9609C63.4588 62.5762 59.7674 62.5938 57.0604 62.5938L56.7967 61.2051ZM66.535 51.6074V52.9434H57.0955V51.6074H60.9803V49.7793H62.6502V51.6074H66.535ZM61.8241 55.0527C60.5057 55.0527 59.6268 55.7031 59.6268 56.7051C59.6268 57.707 60.5057 58.3223 61.8241 58.3223C63.1424 58.3223 64.0213 57.707 64.0213 56.7051C64.0213 55.7031 63.1424 55.0527 61.8241 55.0527ZM80.3999 51.0801V52.416H83.8277V49.7617H85.4976V61.2402H83.8277V57.1621H80.3999V58.5332H73.0874V51.0801H80.3999ZM74.7398 52.4336V57.2148H78.7652V52.4336H74.7398ZM85.8491 63.8066V65.1602H75.2144V60.1855H76.9019V63.8066H85.8491ZM80.3999 55.791H83.8277V53.7871H80.3999V55.791Z" fill="white"/>
</svg>
