<svg width="112" height="75" viewBox="0 0 112 75" fill="none" xmlns="http://www.w3.org/2000/svg">
<rect x="0.5" y="0.5" width="111" height="74" rx="7.5" fill="#393939"/>
<rect x="0.5" y="0.5" width="111" height="74" rx="7.5" stroke="white"/>
<path d="M67 13H45C44.4696 13 43.9609 13.2107 43.5858 13.5858C43.2107 13.9609 43 14.4696 43 15V33C43 33.5304 43.2107 34.0391 43.5858 34.4142C43.9609 34.7893 44.4696 35 45 35H67C67.5304 35 68.0391 34.7893 68.4142 34.4142C68.7893 34.0391 69 33.5304 69 33V15C69 14.4696 68.7893 13.9609 68.4142 13.5858C68.0391 13.2107 67.5304 13 67 13ZM67 15V19H45V15H67ZM67 33H45V21H67V33Z" fill="white"/>
<path d="M30.1841 50.1836C32.5923 50.1836 34.3852 51.6777 34.4028 53.7695C34.3852 55.8789 32.5923 57.3555 30.1841 57.3555C27.7583 57.3555 25.9653 55.8789 25.9653 53.7695C25.9653 51.6777 27.7583 50.1836 30.1841 50.1836ZM30.1841 51.8008C28.8481 51.8008 27.8638 52.5566 27.8638 53.7695C27.8638 55 28.8481 55.7734 30.1841 55.7734C31.52 55.7734 32.5044 55 32.5044 53.7695C32.5044 52.5566 31.52 51.8008 30.1841 51.8008ZM38.9204 49.6738V57.707H36.9516V49.6738H38.9204ZM38.9204 58.3926V62.541H30.3247V63.8242H39.395V65.3711H28.4087V61.0996H36.9692V59.9219H28.3735V58.3926H38.9204ZM53.5939 49.6914V54.2793H55.8088V55.8965H53.5939V61.3809H51.6427V49.6914H53.5939ZM54.2267 63.666V65.248H43.4162V60.2031H45.3673V63.666H54.2267ZM43.5392 50.8164V53.2422H47.2482V50.8164H49.1818V58.7969H41.6056V50.8164H43.5392ZM43.5392 57.25H47.2482V54.7539H43.5392V57.25ZM70.9569 62.0312V63.6309H56.4373V62.0312H62.6952V58.5684H58.037V50.9043H69.287V58.5684H64.6287V62.0312H70.9569ZM59.953 52.4688V57.0391H67.3534V52.4688H59.953ZM84.7163 57.127V58.6914H73.5718V51.0625H84.5933V52.6445H75.5054V57.127H84.7163ZM86.3335 61.9258V63.543H71.814V61.9258H86.3335Z" fill="white"/>
</svg>
