<svg width="317" height="97" viewBox="0 0 317 97" fill="none" xmlns="http://www.w3.org/2000/svg">
<rect x="3" y="3" width="311" height="91" rx="45.5" fill="#232323"/>
<rect x="3" y="3" width="311" height="91" rx="45.5" stroke="#EFCF02" stroke-width="6"/>
<path d="M59.5 40.375C59.5 37.8886 60.4878 35.504 62.2459 33.7459C64.0041 31.9877 66.3886 31 68.875 31C71.3614 31 73.746 31.9877 75.5042 33.7459C77.2623 35.504 78.25 37.8886 78.25 40.375C78.25 40.7065 78.1183 41.0245 77.8839 41.2589C77.6495 41.4933 77.3316 41.625 77 41.625C76.6685 41.625 76.3506 41.4933 76.1161 41.2589C75.8817 41.0245 75.75 40.7065 75.75 40.375C75.75 38.5516 75.0257 36.803 73.7364 35.5136C72.4471 34.2243 70.6984 33.5 68.875 33.5C67.0517 33.5 65.303 34.2243 64.0137 35.5136C62.7244 36.803 62 38.5516 62 40.375C62 40.7065 61.8683 41.0245 61.6339 41.2589C61.3995 41.4933 61.0816 41.625 60.75 41.625C60.4185 41.625 60.1006 41.4933 59.8661 41.2589C59.6317 41.0245 59.5 40.7065 59.5 40.375ZM81.375 47.25C80.6458 47.2492 79.9281 47.4313 79.2875 47.7797C79.0961 47.1873 78.7805 46.6427 78.3617 46.182C77.943 45.7214 77.4308 45.3555 76.8593 45.1086C76.2878 44.8618 75.6703 44.7397 75.0478 44.7506C74.4254 44.7616 73.8125 44.9052 73.25 45.1719V40.375C73.25 39.2147 72.7891 38.1019 71.9686 37.2814C71.1482 36.4609 70.0354 36 68.875 36C67.7147 36 66.6019 36.4609 65.7814 37.2814C64.961 38.1019 64.5 39.2147 64.5 40.375V52.875L63.9032 51.9172C63.3195 50.9141 62.3612 50.184 61.2392 49.8875C60.1172 49.5909 58.9234 49.7523 57.9203 50.3359C56.9173 50.9196 56.1872 51.8779 55.8906 52.9999C55.5941 54.1219 55.7554 55.3157 56.3391 56.3188L60.9203 64.1313C60.9972 64.2834 61.1043 64.4182 61.2352 64.5275C61.366 64.6367 61.5179 64.718 61.6813 64.7664C61.8448 64.8148 62.0164 64.8292 62.1856 64.8089C62.3548 64.7885 62.5181 64.7337 62.6654 64.6479C62.8127 64.5621 62.9409 64.447 63.0421 64.3099C63.1433 64.1727 63.2153 64.0163 63.2538 63.8502C63.2923 63.6842 63.2965 63.512 63.266 63.3443C63.2355 63.1766 63.1711 63.0169 63.0766 62.875L58.5 55.0625C58.3715 54.8491 58.2869 54.6122 58.251 54.3657C58.215 54.1192 58.2286 53.868 58.2909 53.6268C58.3531 53.3856 58.4628 53.1592 58.6135 52.9609C58.7643 52.7626 58.953 52.5963 59.1687 52.4717C59.3844 52.3471 59.6228 52.2668 59.8699 52.2354C60.117 52.2039 60.3679 52.2221 60.608 52.2887C60.848 52.3554 61.0723 52.4692 61.2679 52.6235C61.4634 52.7778 61.6263 52.9695 61.7469 53.1875L61.7688 53.2234L64.6875 57.9109C64.8308 58.1422 65.0457 58.3203 65.2994 58.4184C65.5532 58.5165 65.832 58.5291 66.0935 58.4543C66.3551 58.3796 66.5851 58.2215 66.7487 58.0042C66.9123 57.7868 67.0006 57.522 67 57.25V40.375C67 39.8777 67.1976 39.4008 67.5492 39.0492C67.9008 38.6975 68.3777 38.5 68.875 38.5C69.3723 38.5 69.8492 38.6975 70.2009 39.0492C70.5525 39.4008 70.75 39.8777 70.75 40.375V51C70.75 51.3315 70.8817 51.6495 71.1161 51.8839C71.3506 52.1183 71.6685 52.25 72 52.25C72.3316 52.25 72.6495 52.1183 72.8839 51.8839C73.1183 51.6495 73.25 51.3315 73.25 51V49.125C73.25 48.6277 73.4476 48.1508 73.7992 47.7992C74.1508 47.4475 74.6277 47.25 75.125 47.25C75.6223 47.25 76.0992 47.4475 76.4509 47.7992C76.8025 48.1508 77 48.6277 77 49.125V52.25C77 52.5815 77.1317 52.8995 77.3661 53.1339C77.6006 53.3683 77.9185 53.5 78.25 53.5C78.5816 53.5 78.8995 53.3683 79.1339 53.1339C79.3683 52.8995 79.5 52.5815 79.5 52.25V51.625C79.5 51.1277 79.6976 50.6508 80.0492 50.2992C80.4008 49.9475 80.8777 49.75 81.375 49.75C81.8723 49.75 82.3492 49.9475 82.7009 50.2992C83.0525 50.6508 83.25 51.1277 83.25 51.625V57.25C83.25 60.6266 82.1407 62.9219 82.1313 62.9406C81.9832 63.2371 81.9589 63.5803 82.0638 63.8947C82.1687 64.2091 82.3942 64.469 82.6907 64.6172C82.8641 64.7049 83.0557 64.7504 83.25 64.75C83.4823 64.7502 83.7099 64.6856 83.9075 64.5637C84.1051 64.4417 84.2649 64.2671 84.3688 64.0594C84.4266 63.9453 85.7516 61.2469 85.7516 57.25V51.625C85.7516 51.0503 85.6384 50.4813 85.4184 49.9504C85.1985 49.4195 84.8761 48.9371 84.4696 48.5309C84.0632 48.1246 83.5807 47.8024 83.0497 47.5826C82.5188 47.3628 81.9497 47.2498 81.375 47.25Z" fill="#EFCF02"/>
<path d="M104.295 65.72C103.283 65.764 102.139 65.456 101.435 64.268C100.247 62.376 100.995 60.66 102.887 59.296C107.639 55.952 109.399 51.728 109.399 46.756V32.588C109.399 29.552 111.203 28.76 113.051 28.76C114.899 28.76 116.703 29.552 116.703 32.588V46.756C116.703 51.728 118.463 55.644 123.215 58.988C125.107 60.352 125.855 62.068 124.667 63.96C124.007 64.972 123.083 65.456 122.027 65.5C121.367 65.5 120.663 65.412 120.003 64.928C117.187 62.948 114.987 60.396 113.271 57.58C111.687 60.572 109.575 63.168 106.935 64.884C106.143 65.368 105.263 65.676 104.295 65.72ZM133.731 66.512C131.751 66.512 130.167 65.588 130.167 62.64V32.588C130.167 29.64 131.839 28.76 133.731 28.76C135.579 28.76 137.295 29.552 137.295 32.588V62.64C137.295 65.676 135.623 66.512 133.731 66.512ZM172.679 66.996C170.787 66.996 169.115 66.116 169.115 63.168V58.064H147.071C143.859 58.064 143.067 56.612 143.067 55.072C143.067 53.268 143.859 51.992 147.071 51.992H172.679C175.891 51.992 176.243 53.312 176.243 55.072V63.168C176.243 66.204 174.527 66.996 172.679 66.996ZM145.883 49.484C144.871 49.528 143.727 49.22 143.023 48.032C141.835 46.14 142.539 44.556 144.475 43.28C147.115 41.564 148.919 40.42 149.843 37.868C150.063 37.208 150.239 36.372 150.283 35.36H147.115C143.727 35.36 143.111 33.864 143.111 32.456C143.111 30.696 143.771 29.464 147.115 29.464H160.183C163.527 29.464 164.187 30.696 164.187 32.456C164.187 33.864 163.571 35.36 160.183 35.36H157.675C157.719 36.372 157.851 37.164 158.159 37.824C159.259 40.288 161.107 41.388 163.439 42.972C165.331 44.248 166.079 45.832 164.891 47.724C164.231 48.736 163.307 49.22 162.251 49.264C161.591 49.264 160.887 49.176 160.227 48.692C158.159 47.152 156.047 45.392 154.331 43.324C152.747 45.48 150.767 47.372 148.523 48.648C147.775 49.132 146.807 49.44 145.883 49.484ZM172.767 49.792C170.787 49.792 169.203 48.868 169.203 45.92V32.588C169.203 29.64 170.875 28.76 172.767 28.76C174.615 28.76 176.331 29.552 176.331 32.588V36.284H179.455C182.799 36.284 183.459 37.956 183.459 39.364C183.459 41.124 182.799 42.532 179.455 42.532H176.331V45.92C176.331 48.956 174.659 49.792 172.767 49.792ZM213.52 66.512C211.54 66.512 209.956 65.588 209.956 62.64V32.588C209.956 29.64 211.628 28.76 213.52 28.76C215.368 28.76 217.084 29.552 217.084 32.588V43.984H219.592C222.804 43.984 223.596 45.436 223.596 46.976C223.596 48.78 222.804 50.056 219.592 50.056H217.084V62.64C217.084 65.676 215.412 66.512 213.52 66.512ZM194.732 66.336C188.044 66.336 185.756 63.256 185.404 57.492V53.048C185.756 47.284 187.868 44.028 194.732 44.028C201.156 44.028 203.708 47.24 204.06 53.048V57.492C203.928 63.432 201.376 66.336 194.732 66.336ZM194.732 60.484C195.788 60.484 196.8 60.176 196.932 57.624V52.74C196.932 50.232 195.7 49.924 194.732 49.924C193.676 49.924 192.664 50.496 192.532 52.872V57.624C192.532 60.396 193.72 60.484 194.732 60.484ZM201.64 42.224H187.208C183.996 42.224 183.204 40.904 183.204 39.364C183.204 37.56 183.996 36.416 187.208 36.416H201.64C204.852 36.416 205.644 37.56 205.644 39.364C205.644 40.904 204.852 42.224 201.64 42.224ZM198.868 34.084H189.98C186.768 34.084 185.976 32.764 185.976 31.224C185.976 29.42 186.768 28.276 189.98 28.276H198.868C202.08 28.276 202.872 29.42 202.872 31.224C202.872 32.764 202.08 34.084 198.868 34.084ZM236.585 65.676C234.825 66.556 233.329 65.808 232.405 64.796C231.217 63.74 231.569 61.408 232.581 59.956C235.397 55.952 235.925 53.092 235.925 48.252V35.36H228.005C224.793 35.36 224.001 34.084 224.001 32.28C224.001 30.74 224.793 29.288 228.005 29.288H239.841C243.009 29.288 243.229 30.564 243.229 32.632V49.88C243.229 51.684 242.833 54.808 241.865 58.108C240.809 61.408 239.093 64.4 236.585 65.676ZM257.045 66.512C255.065 66.512 253.481 65.588 253.481 62.64V32.588C253.481 29.64 255.153 28.76 257.045 28.76C258.893 28.76 260.609 29.552 260.609 32.588V62.64C260.609 65.676 258.937 66.512 257.045 66.512Z" fill="#EFCF02"/>
</svg>
