<svg width="32" height="32" viewBox="0 0 32 32" fill="none" xmlns="http://www.w3.org/2000/svg">
<path d="M16.0439 25.348C16.6568 25.349 17.2638 25.2289 17.8301 24.9946C18.3964 24.7603 18.9109 24.4164 19.3439 23.9827L23.1552 20.1713C23.9362 19.3904 23.9362 18.1243 23.1552 17.3433V17.3433C22.3743 16.5624 21.1082 16.5624 20.3272 17.3433L18.0319 19.6387L18.0031 1.99674C18.0013 0.893445 17.1064 0 16.0031 0V0C14.8973 0 14.0014 0.897419 14.0032 2.00326L14.0319 19.612L11.7608 17.3426C10.9797 16.562 9.71368 16.5622 8.93281 17.3431V17.3431C8.15174 18.1241 8.15174 19.3905 8.93281 20.1716L12.7439 23.9827C13.1768 24.4165 13.6912 24.7605 14.2576 24.9948C14.8239 25.2291 15.431 25.3492 16.0439 25.348Z" fill="white"/>
<path d="M30 21.3333C28.8954 21.3333 28 22.2287 28 23.3333V27.0475C28 27.5735 27.5736 27.9999 27.0476 27.9999H4.95238C4.42639 27.9999 4 27.5735 4 27.0475V23.3333C4 22.2287 3.10457 21.3333 2 21.3333V21.3333C0.895431 21.3333 0 22.2287 0 23.3333V27.9999C0 29.0608 0.421427 30.0782 1.17157 30.8283C1.92172 31.5785 2.93913 31.9999 4 31.9999H28C29.0609 31.9999 30.0783 31.5785 30.8284 30.8283C31.5786 30.0782 32 29.0608 32 27.9999V23.3333C32 22.2287 31.1046 21.3333 30 21.3333V21.3333Z" fill="white"/>
</svg>
