<svg width="48" height="48" viewBox="0 0 48 48" fill="none" xmlns="http://www.w3.org/2000/svg">
<path d="M39 10.5H33.8025L31.2469 6.6675C31.11 6.46228 30.9245 6.29401 30.707 6.17757C30.4896 6.06114 30.2467 6.00015 30 6H18C17.7533 6.00015 17.5104 6.06114 17.293 6.17757C17.0755 6.29401 16.89 6.46228 16.7531 6.6675L14.1956 10.5H9C7.80653 10.5 6.66193 10.9741 5.81802 11.818C4.97411 12.6619 4.5 13.8065 4.5 15V36C4.5 37.1935 4.97411 38.3381 5.81802 39.182C6.66193 40.0259 7.80653 40.5 9 40.5H39C40.1935 40.5 41.3381 40.0259 42.182 39.182C43.0259 38.3381 43.5 37.1935 43.5 36V15C43.5 13.8065 43.0259 12.6619 42.182 11.818C41.3381 10.9741 40.1935 10.5 39 10.5ZM40.5 36C40.5 36.3978 40.342 36.7794 40.0607 37.0607C39.7794 37.342 39.3978 37.5 39 37.5H9C8.60218 37.5 8.22064 37.342 7.93934 37.0607C7.65804 36.7794 7.5 36.3978 7.5 36V15C7.5 14.6022 7.65804 14.2206 7.93934 13.9393C8.22064 13.658 8.60218 13.5 9 13.5H15C15.247 13.5002 15.4902 13.4393 15.7081 13.3229C15.9259 13.2064 16.1117 13.038 16.2488 12.8325L18.8025 9H29.1956L31.7512 12.8325C31.8883 13.038 32.0741 13.2064 32.2919 13.3229C32.5098 13.4393 32.753 13.5002 33 13.5H39C39.3978 13.5 39.7794 13.658 40.0607 13.9393C40.342 14.2206 40.5 14.6022 40.5 15V36ZM24 16.5C22.3683 16.5 20.7733 16.9839 19.4165 17.8904C18.0598 18.7969 17.0024 20.0854 16.378 21.5929C15.7536 23.1004 15.5902 24.7592 15.9085 26.3595C16.2269 27.9598 17.0126 29.4298 18.1664 30.5836C19.3202 31.7374 20.7902 32.5232 22.3905 32.8415C23.9908 33.1598 25.6496 32.9964 27.1571 32.372C28.6646 31.7476 29.9531 30.6902 30.8596 29.3335C31.7661 27.9767 32.25 26.3817 32.25 24.75C32.2475 22.5627 31.3775 20.4657 29.8309 18.9191C28.2843 17.3725 26.1873 16.5025 24 16.5ZM24 30C22.9616 30 21.9466 29.6921 21.0833 29.1152C20.2199 28.5383 19.547 27.7184 19.1496 26.7591C18.7523 25.7998 18.6483 24.7442 18.8509 23.7258C19.0534 22.7074 19.5535 21.7719 20.2877 21.0377C21.0219 20.3035 21.9574 19.8034 22.9758 19.6009C23.9942 19.3983 25.0498 19.5023 26.0091 19.8996C26.9684 20.297 27.7883 20.9699 28.3652 21.8333C28.9421 22.6966 29.25 23.7116 29.25 24.75C29.25 26.1424 28.6969 27.4777 27.7123 28.4623C26.7277 29.4469 25.3924 30 24 30Z" fill="white"/>
</svg>
