<svg width="121" height="83" viewBox="0 0 121 83" fill="none" xmlns="http://www.w3.org/2000/svg">
<g filter="url(#filter0_d_1169_1864)">
<rect x="4.5" width="112" height="75" rx="8" fill="#FF4E75" shape-rendering="crispEdges"/>
<path d="M71 13H49C48.4696 13 47.9609 13.2107 47.5858 13.5858C47.2107 13.9609 47 14.4696 47 15V33C47 33.5304 47.2107 34.0391 47.5858 34.4142C47.9609 34.7893 48.4696 35 49 35H71C71.5304 35 72.0391 34.7893 72.4142 34.4142C72.7893 34.0391 73 33.5304 73 33V15C73 14.4696 72.7893 13.9609 72.4142 13.5858C72.0391 13.2107 71.5304 13 71 13ZM71 15V26.5H49V15H71Z" fill="white"/>
<path d="M63.939 21.2929C63.8988 21.1958 63.8398 21.1076 63.7654 21.0333C63.6911 20.959 63.6029 20.9 63.5058 20.8597C63.4087 20.8194 63.3046 20.7987 63.1995 20.7987C63.0944 20.7987 62.9903 20.8194 62.8932 20.8597C62.7961 20.9 62.7078 20.959 62.6336 21.0333L60.7998 22.8681V16.7999C60.7998 16.5877 60.7155 16.3843 60.5655 16.2343C60.4155 16.0843 60.2121 16 59.9999 16C59.7878 16 59.5843 16.0843 59.4343 16.2343C59.2843 16.3843 59.2 16.5877 59.2 16.7999V22.8681L57.3663 21.0333C57.2162 20.8832 57.0126 20.7989 56.8003 20.7989C56.5881 20.7989 56.3845 20.8832 56.2344 21.0333C56.0843 21.1834 56 21.387 56 21.5992C56 21.8115 56.0843 22.0151 56.2344 22.1652L59.434 25.3647C59.5083 25.4391 59.5965 25.4981 59.6936 25.5384C59.7907 25.5786 59.8948 25.5993 59.9999 25.5993C60.105 25.5993 60.2091 25.5786 60.3062 25.5384C60.4033 25.4981 60.4915 25.4391 60.5658 25.3647L63.7654 22.1652C63.8398 22.0909 63.8988 22.0027 63.939 21.9056C63.9793 21.8085 64 21.7044 64 21.5992C64 21.4941 63.9793 21.39 63.939 21.2929Z" fill="white"/>
<path d="M42.6118 49.7266V53.4531H44.897V54.8594H42.6118V58.5684H40.9419V49.7266H42.6118ZM32.6274 50.5703V56.0898C34.7632 56.0723 36.9956 55.9053 39.4126 55.4043L39.6235 56.7754C36.9692 57.3203 34.561 57.4961 32.2407 57.4961H30.9575V50.5703H32.6274ZM42.8579 59.3242V60.6777H38.5337C38.6743 62.2334 40.7485 63.7188 43.5083 64.1406L42.8403 65.4238C40.4761 65.0459 38.5337 63.9033 37.6372 62.3828C36.7495 63.9121 34.7983 65.002 32.4341 65.3887L31.7661 64.123C34.5434 63.7188 36.5913 62.2598 36.7583 60.6777H32.3989V59.3242H42.8579ZM59.9748 57.9707V59.3066H45.6134V57.9707H59.9748ZM58.3576 63.8066V65.1602H47.424V60.5898H49.1115V63.8066H58.3576ZM52.7853 50.2715C56.1955 50.2539 58.4103 51.4492 58.4103 53.418C58.4103 55.4043 56.1955 56.5996 52.7853 56.6172C49.3576 56.5996 47.1603 55.4043 47.1603 53.418C47.1603 51.4492 49.3576 50.2539 52.7853 50.2715ZM52.7853 51.6074C50.3771 51.6074 48.8654 52.293 48.883 53.418C48.8654 54.5781 50.3771 55.2461 52.7853 55.2461C55.1935 55.2461 56.6877 54.5781 56.6877 53.418C56.6877 52.293 55.1935 51.6074 52.7853 51.6074ZM73.3299 49.7441V56.3359H75.703V57.7422H73.3299V65.4941H71.66V49.7441H73.3299ZM60.7967 61.2051C62.036 61.2051 63.4774 61.2051 64.9803 61.1523V59.5527C63.2049 59.3066 62.0448 58.2344 62.0623 56.7051C62.0448 54.9297 63.5741 53.752 65.8241 53.752C68.0565 53.752 69.6034 54.9297 69.6209 56.7051C69.6034 58.2344 68.4256 59.3154 66.6502 59.5703V61.082C68.0477 61.0293 69.4539 60.915 70.7635 60.7305L70.869 61.9609C67.4588 62.5762 63.7674 62.5938 61.0604 62.5938L60.7967 61.2051ZM70.535 51.6074V52.9434H61.0955V51.6074H64.9803V49.7793H66.6502V51.6074H70.535ZM65.8241 55.0527C64.5057 55.0527 63.6268 55.7031 63.6268 56.7051C63.6268 57.707 64.5057 58.3223 65.8241 58.3223C67.1424 58.3223 68.0213 57.707 68.0213 56.7051C68.0213 55.7031 67.1424 55.0527 65.8241 55.0527ZM84.3999 51.0801V52.416H87.8277V49.7617H89.4976V61.2402H87.8277V57.1621H84.3999V58.5332H77.0874V51.0801H84.3999ZM78.7398 52.4336V57.2148H82.7652V52.4336H78.7398ZM89.8491 63.8066V65.1602H79.2144V60.1855H80.9019V63.8066H89.8491ZM84.3999 55.791H87.8277V53.7871H84.3999V55.791Z" fill="white"/>
</g>
<defs>
<filter id="filter0_d_1169_1864" x="0.5" y="0" width="120" height="83" filterUnits="userSpaceOnUse" color-interpolation-filters="sRGB">
<feFlood flood-opacity="0" result="BackgroundImageFix"/>
<feColorMatrix in="SourceAlpha" type="matrix" values="0 0 0 0 0 0 0 0 0 0 0 0 0 0 0 0 0 0 127 0" result="hardAlpha"/>
<feOffset dy="4"/>
<feGaussianBlur stdDeviation="2"/>
<feComposite in2="hardAlpha" operator="out"/>
<feColorMatrix type="matrix" values="0 0 0 0 0 0 0 0 0 0 0 0 0 0 0 0 0 0 0.25 0"/>
<feBlend mode="normal" in2="BackgroundImageFix" result="effect1_dropShadow_1169_1864"/>
<feBlend mode="normal" in="SourceGraphic" in2="effect1_dropShadow_1169_1864" result="shape"/>
</filter>
</defs>
</svg>
